{"title":"Bangin.The.Boss.3.XXX.2014.DVDRiP-ViK","uid":10717520,"size":1645025885,"categoryP":"porn","categoryS":"movies","magnet":"?xt=urn:btih:9bb39de4d18a8f040ac3c7b4dc4096cf38a1ca77&amp;dn=Bangin.The.Boss.3.XXX.2014.DVDRiP-ViK&amp;tr=udp%3A%2F%2Ftracker.openbittorrent.com%3A80&amp;tr=udp%3A%2F%2Fopen.demonii.com%3A1337&amp;tr=udp%3A%2F%2Ftracker.coppersurfer.tk%3A6969&amp;tr=udp%3A%2F%2Fexodus.desync.com%3A6969","seeders":0,"leechers":1,"uploader":"iH2OSO4","files":-1,"time":1407428970,"description":"Bangin' The Boss # 3 Starring Karlie Montana!\n\nEvery day is payday with these horny office sluts that make work fun! Up on the desk, down on the couch, bent over a copier - they'll do whatever and whoever it takes! Keep their in-boxes full and watch that 'bottom line' until the job gets done right!\n\nGeneral\nBangin.The.Boss.3.XXX.2014.DVDRiP-ViK.mp4\n\nSOURCE :  &lt;a href=&quot; http://nuscotower.com/i/4534753.html&quot; rel=&quot;nofollow&quot; target=&quot;_NEW&quot;&gt; http://nuscotower.com/i/4534753.html&lt;/a&gt;\n\nFormat                           : MPEG-4\nFormat profile                   : Base Media\nCodec ID                         : isom\nFile size                        : 1.53 GiB\nDuration                         : 1h 49mn\nOverall bit rate                 : 1 999 Kbps\nEncoded date                     : UTC 2014-08-07 12:58:28\nTagged date                      : UTC 2014-08-07 12:58:28\n\nVideo\nID                               : 1\nFormat                           : MPEG-4 Visual\nFormat profile                   : Simple@L1\nFormat settings, BVOP            : No\nFormat settings, QPel            : No\nFormat settings, GMC             : No warppoints\nFormat settings, Matrix          : Default (H.263)\nCodec ID                         : 20\nDuration                         : 1h 49mn\nBit rate mode                    : Variable\nBit rate                         : 1 885 Kbps\nMaximum bit rate                 : 5 873 Kbps\nWidth                            : 712 pixels\nHeight                           : 400 pixels\nDisplay aspect ratio             : 16:9\nFrame rate mode                  : Constant\nFrame rate                       : 29.970 fps\nColor space                      : YUV\nChroma subsampling               : 4:2:0\nBit depth                        : 8 bits\nScan type                        : Progressive\nCompression mode                 : Lossy\nBits/(Pixel*Frame)               : 0.221\nStream size                      : 1.44 GiB (94%)\nWriting library                  : Lavc53.8.0\nEncoded date                     : UTC 2014-08-07 12:58:28\nTagged date                      : UTC 2014-08-07 12:59:30\n\nAudio\nID                               : 2\nFormat                           : AAC\nFormat/Info                      : Advanced Audio Codec\nFormat profile                   : LC\nCodec ID                         : 40\nDuration                         : 1h 49mn\nBit rate mode                    : Variable\nBit rate                         : 112 Kbps\nMaximum bit rate                 : 155 Kbps\nChannel(s)                       : 2 channels\nChannel positions                : Front: L R\nSampling rate                    : 44.1 KHz\nCompression mode                 : Lossy\nStream size                      : 88.0 MiB (6%)\nEncoded date                     : UTC 2014-08-07 12:59:15\nTagged date                      : UTC 2014-08-07 12:59:30\n","torrent":{"xt":"urn:btih:9bb39de4d18a8f040ac3c7b4dc4096cf38a1ca77","amp;dn":"Bangin.The.Boss.3.XXX.2014.DVDRiP-ViK","amp;tr":["udp%3A%2F%2Ftracker.openbittorrent.com%3A80","udp%3A%2F%2Fopen.demonii.com%3A1337","udp%3A%2F%2Ftracker.coppersurfer.tk%3A6969","udp%3A%2F%2Fexodus.desync.com%3A6969"],"infoHash":"9bb39de4d18a8f040ac3c7b4dc4096cf38a1ca77","infoHashBuffer":{"type":"Buffer","data":[155,179,157,228,209,138,143,4,10,195,199,180,220,64,150,207,56,161,202,119]},"announce":[],"urlList":[]}}